# xmcd CD database file
#
# Track frame offsets:
#	150
#	13619
#	31310
#	45034
#	62066
#	81650
#	98731
#	115550
#	140652
#	157066
#	178692
#	194896
#	216150
#	227567
#
# Disc length: 3559 seconds
#
# Revision: 3
# Processed by: cddbd v1.4PL0 Copyright (c) Steve Scherf et al.
# Submitted via: CDex 1.50
#
DISCID=be0de50e,bf0de50e
DTITLE=Fun Lovin' Criminals - Loco
DYEAR=1900
DGENRE=
TTITLE0=Where The Bums Go
TTITLE1=Loco
TTITLE2=The Biz
TTITLE3=Run Daddy Run
TTITLE4=Half A Block
TTITLE5=Swashbucklin' In Brooklyn
TTITLE6=Bump
TTITLE7=Microphone Fiend
TTITLE8=My Sin
TTITLE9=Underground
TTITLE10=She's My Friend
TTITLE11=There Was A Time
TTITLE12=Dickholder
TTITLE13=Little Song
EXTD=
EXTT0=
EXTT1=
EXTT2=
EXTT3=
EXTT4=
EXTT5=
EXTT6=
EXTT7=
EXTT8=
EXTT9=
EXTT10=
EXTT11=
EXTT12=
EXTT13=
PLAYORDER=
